<svg width="52" height="52" viewBox="0 0 52 52" fill="none" xmlns="http://www.w3.org/2000/svg">
<path d="M26.424 0.949463C12.2997 0.949463 0.90918 12.294 0.90918 26.3612C0.90918 40.4285 12.2997 51.9243 26.424 51.9243C40.5482 51.9243 51.9388 40.4285 51.9388 26.5125C51.9388 12.5965 40.5482 0.949463 26.424 0.949463ZM26.424 51.4705C12.6035 51.4705 1.21293 40.2772 1.21293 26.3612C1.21293 12.5965 12.4516 1.25198 26.424 1.25198C40.3964 1.25198 51.635 12.4453 51.635 26.3612C51.635 40.2772 40.2445 51.4705 26.424 51.4705Z" fill="#222223"/>
<path d="M34.4733 25.7561H18.8303L22.4753 21.9746C22.779 21.672 22.6272 21.3695 22.4753 21.067C22.1715 20.7645 21.8678 20.9157 21.564 21.067L17.0078 25.7561C16.856 26.0586 16.856 26.2099 16.856 26.3611C16.856 26.5124 16.856 26.5124 17.0078 26.6636L21.1084 32.4115C21.2603 32.5628 21.4122 32.7141 21.564 32.7141C21.7159 32.7141 21.8678 32.7141 21.8678 32.5628C22.1715 32.4115 22.1715 31.9578 22.0197 31.6552L18.5266 26.8149H34.4733C34.7771 26.8149 35.0808 26.5124 35.0808 26.2099C35.0808 25.9073 34.7771 25.7561 34.4733 25.7561Z" fill="#222223"/>
</svg>
