<svg width="52" height="52" viewBox="0 0 52 52" fill="none" xmlns="http://www.w3.org/2000/svg">
<path d="M25.576 51.0505C39.7003 51.0505 51.0908 39.706 51.0908 25.6388C51.0908 11.5715 39.7003 0.0757474 25.576 0.0757462C11.4518 0.075745 0.0612408 11.5715 0.0612396 25.4875C0.0612384 39.4035 11.4518 51.0505 25.576 51.0505ZM25.576 0.529524C39.3965 0.529525 50.7871 11.7228 50.7871 25.6388C50.7871 39.4035 39.5484 50.748 25.576 50.748C11.6036 50.748 0.36498 39.5547 0.364981 25.6388C0.364982 11.7228 11.7555 0.529522 25.576 0.529524Z" fill="#222223"/>
<path d="M17.5272 26.2439L33.1702 26.2439L29.5252 30.0254C29.2215 30.328 29.3733 30.6305 29.5252 30.933C29.8289 31.2355 30.1327 31.0843 30.4364 30.933L34.9927 26.2439C35.1445 25.9414 35.1445 25.7901 35.1445 25.6389C35.1445 25.4876 35.1445 25.4876 34.9927 25.3364L30.8921 19.5885C30.7402 19.4372 30.5883 19.2859 30.4364 19.2859C30.2846 19.2859 30.1327 19.2859 30.1327 19.4372C29.829 19.5885 29.829 20.0422 29.9808 20.3448L33.4739 25.1851L17.5272 25.1851C17.2234 25.1851 16.9197 25.4876 16.9197 25.7901C16.9197 26.0927 17.2234 26.2439 17.5272 26.2439Z" fill="#222223"/>
</svg>
