<?xml version="1.0" encoding="utf-8"?>
<!-- Generator: Adobe Illustrator 27.0.0, SVG Export Plug-In . SVG Version: 6.00 Build 0)  -->
<svg version="1.1" id="Capa_1" xmlns="http://www.w3.org/2000/svg" xmlns:xlink="http://www.w3.org/1999/xlink" x="0px" y="0px"
	 viewBox="0 0 182.3 178.26" style="enable-background:new 0 0 182.3 178.26;" xml:space="preserve">
<style type="text/css">
	.st0{fill:#222223;}
</style>
<g>
	<polygon class="st0" points="2.19,18.02 6.43,18.02 6.43,4.41 20.04,4.41 20.04,0.17 2.19,0.17 	"/>
	<polygon class="st0" points="6.43,160.23 2.19,160.23 2.19,178.08 20.04,178.08 20.04,173.85 6.43,173.85 	"/>
	<polygon class="st0" points="175.87,173.85 162.25,173.85 162.25,178.08 180.11,178.08 180.11,160.23 175.87,160.23 	"/>
	<polygon class="st0" points="162.25,0.17 162.25,4.41 175.87,4.41 175.87,18.02 180.11,18.02 180.11,0.17 	"/>
	<polygon class="st0" points="93.27,73.39 89.03,73.39 89.03,87.01 75.42,87.01 75.42,91.25 89.03,91.25 89.03,104.86 93.27,104.86 
		93.27,91.25 106.88,91.25 106.88,87.01 93.27,87.01 	"/>
	<path class="st0" d="M91.15,20.4c-37.9,0-68.73,30.83-68.73,68.73s30.83,68.73,68.73,68.73c37.9,0,68.73-30.83,68.73-68.73
		S129.05,20.4,91.15,20.4z M91.15,156.8c-37.32,0-67.67-30.36-67.67-67.67s30.36-67.67,67.67-67.67s67.67,30.36,67.67,67.67
		S128.47,156.8,91.15,156.8z"/>
</g>
</svg>
