<?xml version="1.0" encoding="utf-8"?>
<!-- Generator: Adobe Illustrator 27.0.0, SVG Export Plug-In . SVG Version: 6.00 Build 0)  -->
<svg version="1.1" id="Capa_1" xmlns="http://www.w3.org/2000/svg" xmlns:xlink="http://www.w3.org/1999/xlink" x="0px" y="0px"
	 viewBox="0 0 1911.2 471.24" style="enable-background:new 0 0 1911.2 471.24;" xml:space="preserve">
<style type="text/css">
	.st0{fill:#222223;}
</style>
<path class="st0" d="M470.72,9.22c-0.16,1.9-0.32,3.8-0.46,5.55c-4.86,0.63-9.67,0.83-14.28,1.92
	c-18.2,4.29-31.23,19.69-32.86,38.53c-0.32,3.66-0.48,7.35-0.48,11.03c-0.02,111.75-0.02,223.51-0.03,335.26
	c0,7.81,0.82,15.49,4.05,22.67c7.38,16.44,20.39,24.85,38.22,26.15c1.65,0.12,3.31,0.13,4.97,0.21c0.08,0,0.16,0.08,0.36,0.18
	c0.07,0.45,0.21,0.98,0.22,1.51c0.03,1.28,0.01,2.56,0.01,4.02c-61.43,0-122.65,0-184.09,0c0-1.83,0-3.68,0-5.35
	c4.88-0.64,9.7-0.86,14.32-1.95c17.99-4.26,30.91-19.42,32.71-38.07c0.34-3.57,0.52-7.17,0.52-10.75
	c0.03-62.19,0.02-124.38,0.02-186.56c0-1.19,0-2.38,0-3.79c-63.32,0-126.47,0-189.9,0c-0.05,1.01-0.13,1.98-0.13,2.96
	c-0.01,62.93,0,125.85-0.02,188.78c0,7.14,0.72,14.15,3.25,20.89c6.2,16.49,21.14,27.22,38.95,27.95c1.55,0.06,3.1,0.01,4.84,0.01
	c0,2.09,0,3.89,0,5.89c-61.25,0-122.55,0-184.01,0c0-1.82,0-3.62,0-5.42c4.38-0.48,8.81-0.63,13.09-1.49
	c18.49-3.68,31.93-18.14,34.33-36.83c0.49-3.82,0.71-7.71,0.71-11.56c0.04-112.12,0.01-224.25,0.05-336.37
	c0-10.8-1.66-21.11-7.84-30.25c-8.16-12.07-19.77-18.1-34.16-19.11c-1.99-0.14-4-0.02-6.08-0.02c-0.11-2.34-0.19-4.16-0.27-5.98
	c61.46,0,122.92,0,184.38,0c0,1.91,0,3.82,0,6.09c-1.84,0-3.39-0.05-4.93,0.01c-17.89,0.69-32.98,11.53-39.12,28.09
	c-2.47,6.65-3.2,13.57-3.19,20.62c0.03,44.67,0.01,89.34,0.01,134c0,0.97,0,1.95,0,2.95c63.54,0,126.67,0,190.04,0
	c0-1.27,0-2.36,0-3.45c0-43.93,0.01-87.86-0.02-131.79c0-3.58-0.18-7.18-0.5-10.75c-1.71-18.75-14.65-33.98-32.77-38.28
	c-4.61-1.09-9.43-1.31-14.28-1.94c0-1.74,0-3.64,0-5.54C347.8,9.22,409.26,9.22,470.72,9.22z M1905.32,147.43
	c-0.96-0.28-1.94-0.51-2.87-0.86c-18.85-7.12-38.09-9.15-57.8-4.16c-17.29,4.37-30.35,15.16-41.68,28.23
	c-11.32,13.06-19.09,28.37-26.67,43.75c-0.8,1.62-1.54,3.26-2.31,4.88c-0.28-0.03-0.56-0.06-0.83-0.09c0-30.85,0-61.7,0-92.55
	c-0.3-0.18-0.6-0.35-0.91-0.53c-1.03,0.51-2.42,0.74-3.04,1.56c-4.3,5.67-9.97,9.5-16.27,12.53c-11.81,5.66-24.53,7.43-37.38,7.7
	c-22.32,0.47-44.65,0.35-66.98,0.48c-1.15,0.01-2.3,0-3.36,0c0,2.19,0,3.88,0,5.42c5.09,0.47,9.96,0.78,14.79,1.39
	c16.76,2.12,25.62,9.75,29.35,26.15c1.46,6.4,2.13,13.11,2.15,19.69c0.16,61.91,0.1,123.82,0.07,185.73c0,3.22-0.19,6.44-0.52,9.64
	c-2.01,19.4-16.73,34.64-36.14,37.43c-3.24,0.46-6.52,0.67-9.75,1c0,1.94,0,3.64,0,5.43c58.71,0,117.26,0,175.82,0
	c0-1.94,0-3.71,0-5.61c-2.04-0.1-3.87-0.14-5.7-0.3c-8.63-0.72-16.63-3.25-23.57-8.56c-12.25-9.37-17.1-22.17-17.1-37.18
	c0-50.49,0-100.97,0.03-151.46c0-1.16,0.1-2.47,0.63-3.46c4.33-8,8.51-16.1,13.26-23.84c6.61-10.78,16.98-15.1,29.24-15.41
	c15.07-0.38,29.17,3.77,42.81,9.65c7.51,3.23,14.77,7.02,22.29,10.64c0.26-0.68,0.59-1.41,0.84-2.17
	c4.26-12.74,8.48-25.48,12.77-38.21c2.9-8.61,5.89-17.2,8.84-25.79C1905.32,148.16,1905.32,147.79,1905.32,147.43z M988.75,434.65
	c-1.47-0.1-2.95-0.18-4.42-0.27c-9.04-0.58-17.39-3.19-24.62-8.78c-12.11-9.37-16.87-22.12-16.86-37.02
	c0.01-55.65,0-111.3,0.05-166.95c0-1.3,0.33-2.82,1.05-3.87c5.38-7.91,10.42-16.11,16.46-23.5c9.54-11.67,20.97-21.28,35.1-27.15
	c22.06-9.15,40.71-2.02,51.13,19.37c5.68,11.67,7.75,24.15,7.77,36.98c0.08,55.28,0.05,110.56,0.06,165.84
	c0,1.47-0.08,2.95-0.16,4.42c-1.13,20.7-16.1,37.14-36.55,40.09c-3.24,0.47-6.52,0.67-9.74,0.99c0,1.94,0,3.65,0,5.45
	c58.54,0,116.91,0,175.37,0c0-1.92,0-3.7,0-5.63c-2.13-0.11-4.05-0.19-5.97-0.3c-17.88-1.1-33.2-12.7-38.06-29.65
	c-1.67-5.84-2.35-12.15-2.37-18.24c-0.18-51.23-0.12-102.45-0.09-153.68c0.01-10.08-0.79-20.08-3.42-29.82
	c-7.5-27.86-23.8-48.15-51.54-57.94c-17.3-6.11-35.23-6.26-52.98-2.48c-37.43,7.98-66.65,27.72-85.75,61.39
	c-0.33,0.58-0.73,1.12-1.1,1.67c-0.29-0.05-0.57-0.09-0.86-0.14c0-26.28,0-52.56,0-79.71c-2.8,0.8-5.57,0.73-6.63,2.04
	c-4.35,5.36-9.63,9.35-15.71,12.42c-11.3,5.71-23.57,7.41-35.95,7.69c-22.04,0.49-44.1,0.36-66.15,0.49c-1.09,0.01-2.19,0-3.42,0
	c0,2.03,0,3.8,0,5.41c5.18,0.48,10.16,0.78,15.08,1.42c16.59,2.14,25.6,10.02,29.18,26.37c1.43,6.51,2.1,13.31,2.12,19.98
	c0.16,60.99,0.1,121.98,0.07,182.98c0,3.59-0.08,7.19-0.45,10.76c-2.39,23.25-20.07,40.76-47.52,39.18
	c-16.09-0.93-27.67-10.33-34.42-25.11c-3.24-7.09-4.01-14.65-3.99-22.38c0.22-85.77,0.39-171.55,0.57-257.32c0-0.98,0-1.96,0-3.8
	c-2.55,0.71-5.38,0.63-6.5,1.97c-4.23,5.08-9.31,8.87-15.1,11.87c-11.59,6-24.19,7.9-36.95,8.19c-22.51,0.5-45.02,0.37-67.54,0.49
	c-1.08,0.01-2.16,0-3.39,0c0,2.02,0,3.72,0,5.41c4.5,0.47,8.9,0.77,13.25,1.43c14.75,2.25,24.98,10.3,29.34,24.62
	c1.91,6.26,3.16,12.98,3.19,19.49c0.25,55.92,0.15,111.85,0.11,167.77c0,1.13-0.31,2.39-0.86,3.37
	c-6.79,12.12-14.85,23.31-24.92,32.95c-9.27,8.88-19.43,16.42-31.98,20.12c-17.5,5.16-32.24-0.16-42.32-15.32
	c-1.68-2.52-3.17-5.2-4.44-7.94c-5.65-12.22-7.19-25.23-7.2-38.5c-0.02-77.21-0.01-154.42-0.01-231.62c0-1.16,0-2.32,0-4.27
	c-2.51,0.65-5.33,0.51-6.35,1.8c-4.68,5.86-10.5,10.03-17.17,13.18c-10.99,5.18-22.81,6.79-34.72,7.04
	c-22.41,0.46-44.84,0.35-67.26,0.48c-1.08,0.01-2.17,0-3.34,0c0,2.05,0,3.82,0,5.26c6.36,0.72,12.52,1.2,18.61,2.15
	c13.05,2.06,21.38,9.51,24.97,22.3c2.03,7.25,2.83,14.61,2.83,22.11c-0.02,51.32-0.01,102.64-0.01,153.95
	c0,11.09,0.78,22.11,3.82,32.82c7.85,27.66,24.39,47.66,52.15,57.04c17.65,5.97,35.88,5.91,53.84,1.82
	c36.53-8.33,65.23-27.86,84.09-60.77c0.33-0.57,0.75-1.09,1.12-1.63c0.25,0.05,0.51,0.1,0.76,0.15c0,24.26,0,48.52,0,73.7
	c1.84-0.96,3.19-1.24,3.85-2.07c5.65-7.16,13.34-10.96,22.05-11.93c12.81-1.43,25.73-2.69,38.6-2.74
	c76.41-0.25,152.81-0.13,229.22-0.14c1.17,0,2.33,0,3.57,0c0-2.07,0-3.79,0-5.44C989.07,434.81,988.91,434.67,988.75,434.65z
	 M1635.61,347.81c-21.57,29.34-50.44,45.86-86.93,48.06c-26.65,1.61-50.02-6.45-68.88-25.91c-10.66-11-18.44-23.86-24.07-38.04
	c-7.88-19.84-11.04-40.59-11.65-61.8c-0.1-3.54-0.01-7.09-0.01-10.94c64.61,0,128.86,0,193.71,0c-0.9-7.75-1.33-15.21-2.68-22.49
	c-7.86-42.33-31.92-71.68-71.97-87.48c-25.15-9.92-51.44-11.29-77.87-6.73c-51.17,8.84-86.86,37.69-107.47,85.08
	c-8.02,18.45-11.34,38.03-12.05,58.06c-1.07,30.05,3.23,59.13,16.48,86.44c14.54,29.97,36.55,52.42,67.56,65.38
	c24.31,10.16,49.76,12.27,75.49,7.92c51.22-8.67,88.4-36.56,111.18-83.29c2.2-4.51,3.82-9.31,5.88-14.4
	C1639.71,347.73,1637.96,344.61,1635.61,347.81z M1444.45,250.51c0.46-5.4,0.77-10.61,1.36-15.8c1.81-15.97,5.09-31.61,11.64-46.39
	c4.74-10.7,10.68-20.63,19.63-28.41c19.38-16.84,46.47-14.28,62.36,5.87c8.37,10.62,13.12,22.94,16.48,35.86
	c4.01,15.42,5.32,31.18,5.51,47.06c0.01,0.54-0.08,1.07-0.13,1.81C1522.28,250.51,1483.57,250.51,1444.45,250.51z M1370.2,390.85
	c-0.72,0.57-1.43,1.14-2.15,1.71c-11,8.73-22.88,15.87-36.61,19.38c-20.22,5.16-34.47-3.35-39-23.7c-1.51-6.77-2.17-13.86-2.18-20.8
	c-0.16-68.54-0.09-137.08-0.09-205.63c0-0.97,0-1.95,0-3.16c1.46,0,2.55,0,3.64,0c21.5,0,43,0.01,64.5-0.03
	c1.03,0,2.58-0.09,2.99-0.72c1.91-2.94,3.5-6.09,5.47-9.63c-25.89,0-51.14,0-76.66,0c0-27.67,0-55.08,0-82.7
	c-1.92,0-3.59,0.18-5.2-0.04c-2.95-0.41-4.51,0.71-5.96,3.39c-7.2,13.35-15.96,25.64-26.42,36.67
	c-22.58,23.82-49.65,39.33-82.43,44.22c-3.88,0.58-7.79,1.02-11.68,1.52c0,2.52,0,4.78,0,7.34c16.27,0,32.37,0,48.73,0
	c0,1.48,0,2.66,0,3.83c0,71.67-0.02,143.35,0.05,215.02c0.01,5.32,0.24,10.71,1.09,15.96c3.73,22.96,16.08,39.71,37.44,49.17
	c17.43,7.72,35.61,7.41,53.64,2.39c28.67-7.98,51.68-24.61,70.19-47.61c1.23-1.53,1.14-4.14,1.66-6.24
	C1370.87,391.07,1370.54,390.96,1370.2,390.85z"/>
</svg>
