<svg width="44" height="43" viewBox="0 0 44 43" fill="none" xmlns="http://www.w3.org/2000/svg">
<path d="M21.5274 0C9.65661 0 0 9.54939 0 21.2884C0 33.0274 9.65661 42.5768 21.5274 42.5768C33.3982 42.5768 43.0549 33.0274 43.0549 21.2884C43.0549 9.54939 33.3982 0 21.5274 0ZM21.5274 41.2464C10.3996 41.2464 1.34531 32.2927 1.34531 21.2884C1.34531 10.2841 10.3996 1.33037 21.5274 1.33037C32.6552 1.33037 41.7095 10.2841 41.7095 21.2884C41.7095 32.2927 32.6552 41.2464 21.5274 41.2464Z" fill="#222223"/>
<path d="M31.1938 12.0857C31.2802 11.1092 31.9615 10.311 32.9168 10.0889C33.1587 10.0327 33.4105 10.023 33.6647 9.98879C33.6721 9.89847 33.6796 9.80083 33.6894 9.70074C30.4681 9.70074 27.2443 9.70074 24.0229 9.70074C24.0229 9.79839 24.0229 9.89847 24.0229 9.98879C24.2772 10.0205 24.529 10.0327 24.7709 10.0889C25.7212 10.311 26.4001 11.1019 26.4889 12.0734C26.5062 12.259 26.5161 12.4445 26.5161 12.63C26.5186 14.9075 26.5161 17.185 26.5161 19.4625C26.5161 19.5187 26.5161 19.5748 26.5161 19.6407C23.1935 19.6407 19.8833 19.6407 16.5534 19.6407C16.5534 19.5894 16.5534 19.5382 16.5534 19.4869C16.5534 17.1704 16.5534 14.8562 16.5534 12.5397C16.5534 12.1735 16.5904 11.8147 16.7212 11.4705C17.0421 10.6113 17.8345 10.0498 18.7725 10.0132C18.854 10.0108 18.9354 10.0132 19.0317 10.0132C19.0317 9.89603 19.0317 9.79595 19.0317 9.6983C15.8104 9.6983 12.5866 9.6983 9.36523 9.6983C9.37017 9.7935 9.37511 9.88626 9.38004 10.0083C9.48866 10.0083 9.5948 10.001 9.69848 10.0083C10.4538 10.0596 11.0611 10.372 11.4881 10.9994C11.8115 11.4729 11.9003 12.0075 11.9003 12.5665C11.8979 18.3787 11.9003 24.1933 11.8979 30.0054C11.8979 30.2056 11.8855 30.4057 11.8608 30.6059C11.735 31.575 11.029 32.3244 10.0613 32.5148C9.83671 32.5588 9.60468 32.5661 9.37511 32.5929C9.37511 32.6857 9.37511 32.7784 9.37511 32.8736C12.5964 32.8736 15.8104 32.8736 19.0218 32.8736C19.0218 32.7687 19.0218 32.6759 19.0218 32.5685C18.9305 32.5685 18.8491 32.571 18.7676 32.5685C17.8345 32.5319 17.0495 31.9753 16.7262 31.1185C16.5929 30.7695 16.5559 30.4057 16.5559 30.0347C16.5559 26.7735 16.5559 23.5098 16.5559 20.2485C16.5559 20.1973 16.5608 20.1484 16.5633 20.0947C19.8883 20.0947 23.1985 20.0947 26.5186 20.0947C26.5186 20.168 26.5186 20.229 26.5186 20.2925C26.5186 23.5171 26.5186 26.7417 26.5186 29.9639C26.5186 30.1494 26.5087 30.3374 26.4914 30.5205C26.3976 31.4871 25.7188 32.2731 24.7758 32.4928C24.5339 32.549 24.2821 32.5612 24.0254 32.5929C24.0254 32.6784 24.0254 32.776 24.0254 32.8712C27.2467 32.8712 30.4557 32.8712 33.6771 32.8712C33.6771 32.7955 33.6796 32.7296 33.6771 32.6637C33.6771 32.6369 33.6697 32.6076 33.6647 32.5856C33.6549 32.5807 33.6499 32.5758 33.645 32.5758C33.5586 32.571 33.4722 32.571 33.3833 32.5661C32.4478 32.4977 31.7665 32.0632 31.3789 31.2113C31.2111 30.8402 31.1667 30.4399 31.1667 30.0371C31.1667 24.2421 31.1667 18.4495 31.1691 12.6544C31.1691 12.4665 31.179 12.2761 31.1938 12.0857Z" fill="#222223"/>
</svg>
