<svg width="308" height="70" viewBox="0 0 308 70" fill="none" xmlns="http://www.w3.org/2000/svg">
<path d="M75.2707 0C75.2447 0.294376 75.2188 0.588752 75.1961 0.859888C74.4076 0.957497 73.6273 0.988484 72.8795 1.15736C69.927 1.82203 67.8132 4.20803 67.5488 7.127C67.4969 7.69406 67.4709 8.26577 67.4709 8.83593C67.4677 26.1499 67.4677 43.4654 67.466 60.7794C67.466 61.9894 67.5991 63.1793 68.1231 64.2918C69.3203 66.8389 71.4308 68.1419 74.3233 68.3433C74.591 68.3619 74.8603 68.3634 75.1295 68.3758C75.1425 68.3758 75.1555 68.3882 75.188 68.4037C75.1993 68.4734 75.222 68.5556 75.2236 68.6377C75.2285 68.836 75.2253 69.0343 75.2253 69.2605C65.2598 69.2605 55.3284 69.2605 45.3613 69.2605C45.3613 68.977 45.3613 68.6904 45.3613 68.4316C46.153 68.3325 46.9349 68.2984 47.6844 68.1295C50.6028 67.4695 52.6987 65.1207 52.9907 62.2311C53.0459 61.678 53.0751 61.1202 53.0751 60.5656C53.08 50.9302 53.0783 41.2948 53.0783 31.6609C53.0783 31.4766 53.0783 31.2922 53.0783 31.0737C42.8063 31.0737 32.5618 31.0737 22.2718 31.0737C22.2637 31.2302 22.2508 31.3805 22.2508 31.5323C22.2491 41.2824 22.2508 51.0309 22.2475 60.7809C22.2475 61.8872 22.3643 62.9733 22.7747 64.0175C23.7805 66.5724 26.2042 68.2348 29.0934 68.348C29.3448 68.3572 29.5963 68.3495 29.8786 68.3495C29.8786 68.6733 29.8786 68.9522 29.8786 69.2621C19.9423 69.2621 9.99791 69.2621 0.0275782 69.2621C0.0275782 68.9801 0.0275782 68.7012 0.0275782 68.4223C0.738123 68.348 1.45678 68.3247 2.1511 68.1915C5.15064 67.6213 7.33094 65.381 7.72028 62.4852C7.79977 61.8934 7.83546 61.2907 7.83546 60.6942C7.84195 43.3229 7.83708 25.95 7.84357 8.57874C7.84357 6.90545 7.57428 5.30807 6.57173 3.89196C5.24797 2.0219 3.36454 1.08764 1.03013 0.931158C0.7073 0.909467 0.381228 0.92806 0.0438007 0.92806C0.025956 0.565512 0.012978 0.283531 0 0.00154924C9.97034 0.00154924 19.9407 0.00154924 29.911 0.00154924C29.911 0.297475 29.911 0.5934 29.911 0.945102C29.6125 0.945102 29.3611 0.937356 29.1112 0.946652C26.209 1.05356 23.7611 2.73305 22.765 5.29877C22.3643 6.32909 22.2459 7.40124 22.2475 8.49353C22.2524 15.4145 22.2491 22.3354 22.2491 29.2548C22.2491 29.4051 22.2491 29.5569 22.2491 29.7119C32.5569 29.7119 42.7981 29.7119 53.0783 29.7119C53.0783 29.5151 53.0783 29.3462 53.0783 29.1773C53.0783 22.371 53.08 15.5648 53.0751 8.75847C53.0751 8.2038 53.0459 7.64603 52.994 7.09292C52.7166 4.18789 50.6174 1.82823 47.6779 1.16201C46.93 0.993132 46.1481 0.959047 45.3613 0.861438C45.3613 0.591851 45.3613 0.297475 45.3613 0.00309862C55.33 -7.67646e-08 65.3003 0 75.2707 0ZM307.998 21.4135C307.843 21.3702 307.684 21.3345 307.533 21.2803C304.475 20.1772 301.354 19.8626 298.156 20.6358C295.351 21.3128 293.233 22.9846 291.395 25.0096C289.558 27.033 288.298 29.4051 287.068 31.788C286.938 32.039 286.818 32.2931 286.693 32.5441C286.648 32.5394 286.603 32.5348 286.559 32.5301C286.559 27.7504 286.559 22.9706 286.559 18.1909C286.51 18.163 286.461 18.1367 286.411 18.1088C286.244 18.1878 286.019 18.2234 285.918 18.3505C285.22 19.229 284.301 19.8224 283.279 20.2918C281.363 21.1687 279.299 21.443 277.215 21.4848C273.594 21.5576 269.971 21.539 266.349 21.5592C266.162 21.5607 265.976 21.5592 265.804 21.5592C265.804 21.8985 265.804 22.1603 265.804 22.3989C266.629 22.4717 267.419 22.5198 268.203 22.6143C270.922 22.9427 272.359 24.1249 272.964 26.6658C273.201 27.6574 273.31 28.697 273.313 29.7165C273.339 39.3085 273.329 48.9005 273.324 58.4925C273.324 58.9914 273.294 59.4903 273.24 59.9861C272.914 62.9919 270.526 65.3531 267.377 65.7853C266.852 65.8566 266.32 65.8891 265.796 65.9403C265.796 66.2408 265.796 66.5042 265.796 66.7816C275.32 66.7816 284.818 66.7816 294.318 66.7816C294.318 66.481 294.318 66.2068 294.318 65.9124C293.987 65.8969 293.69 65.8907 293.393 65.8659C291.993 65.7543 290.695 65.3624 289.57 64.5397C287.582 63.0879 286.796 61.1048 286.796 58.7792C286.796 50.9565 286.796 43.1354 286.8 35.3127C286.8 35.133 286.817 34.9301 286.903 34.7767C287.605 33.5372 288.283 32.2822 289.054 31.083C290.126 29.4128 291.808 28.7435 293.797 28.6955C296.242 28.6366 298.529 29.2796 300.742 30.1906C301.96 30.691 303.138 31.2782 304.358 31.8391C304.4 31.7338 304.454 31.6207 304.494 31.5029C305.185 29.529 305.87 27.5552 306.566 25.5828C307.036 24.2489 307.521 22.918 308 21.5871C307.998 21.5266 307.998 21.4693 307.998 21.4135ZM159.308 65.9139C159.07 65.8984 158.829 65.886 158.591 65.8721C157.124 65.7822 155.77 65.3779 154.597 64.5118C152.632 63.06 151.86 61.0846 151.862 58.7761C151.863 50.154 151.862 41.5318 151.87 32.9097C151.87 32.7083 151.924 32.4728 152.04 32.3101C152.913 31.0846 153.731 29.8141 154.711 28.6691C156.258 26.8611 158.112 25.3721 160.405 24.4627C163.983 23.045 167.009 24.1497 168.699 27.4637C169.621 29.2718 169.956 31.2054 169.96 33.1932C169.973 41.758 169.968 50.3228 169.969 58.8876C169.969 59.1154 169.956 59.3447 169.943 59.5724C169.76 62.7796 167.332 65.3267 164.014 65.7838C163.489 65.8566 162.956 65.8876 162.434 65.9372C162.434 66.2377 162.434 66.5027 162.434 66.7816C171.931 66.7816 181.4 66.7816 190.883 66.7816C190.883 66.4841 190.883 66.2083 190.883 65.9093C190.538 65.8922 190.226 65.8798 189.915 65.8628C187.014 65.6924 184.529 63.8951 183.741 61.269C183.47 60.3642 183.359 59.3865 183.356 58.443C183.327 50.5057 183.337 42.5699 183.342 34.6326C183.343 33.0708 183.213 31.5215 182.787 30.0124C181.57 25.6959 178.926 22.5523 174.426 21.0355C171.619 20.0889 168.711 20.0656 165.831 20.6513C159.759 21.8876 155.019 24.9461 151.92 30.1627C151.867 30.2526 151.802 30.3362 151.742 30.4215C151.695 30.4137 151.649 30.4075 151.602 30.3998C151.602 26.3281 151.602 22.2564 151.602 18.0499C151.148 18.1739 150.699 18.163 150.527 18.366C149.821 19.1964 148.965 19.8146 147.978 20.2903C146.145 21.1749 144.155 21.4383 142.146 21.4817C138.571 21.5576 134.992 21.5375 131.415 21.5576C131.238 21.5592 131.06 21.5576 130.86 21.5576C130.86 21.8722 130.86 22.1464 130.86 22.3958C131.701 22.4702 132.508 22.5167 133.307 22.6158C135.998 22.9474 137.46 24.1683 138.04 26.7015C138.272 27.7101 138.381 28.7637 138.384 29.7971C138.41 39.2465 138.4 48.696 138.396 58.147C138.396 58.7033 138.383 59.261 138.323 59.8141C137.935 63.4164 135.067 66.1293 130.614 65.8845C128.003 65.7404 126.125 64.284 125.03 61.9941C124.504 60.8956 124.379 59.7243 124.383 58.5266C124.418 45.2379 124.446 31.9476 124.475 18.6588C124.475 18.507 124.475 18.3551 124.475 18.07C124.061 18.1801 123.602 18.1677 123.421 18.3753C122.734 19.1623 121.91 19.7495 120.971 20.2143C119.091 21.144 117.047 21.4383 114.977 21.4833C111.325 21.5607 107.673 21.5406 104.02 21.5592C103.845 21.5607 103.67 21.5592 103.47 21.5592C103.47 21.8722 103.47 22.1355 103.47 22.3974C104.2 22.4702 104.914 22.5167 105.62 22.6189C108.013 22.9675 109.672 24.2148 110.379 26.4334C110.689 27.4033 110.892 28.4445 110.897 29.4531C110.937 38.1171 110.921 46.7826 110.915 55.4465C110.915 55.6216 110.864 55.8168 110.775 55.9687C109.674 57.8465 108.366 59.5802 106.733 61.0738C105.229 62.4496 103.581 63.6178 101.545 64.1911C98.7057 64.9905 96.3145 64.1663 94.6793 61.8175C94.4067 61.427 94.165 61.0118 93.959 60.5873C93.0424 58.694 92.7926 56.6783 92.791 54.6223C92.7877 42.6598 92.7893 30.6972 92.7893 18.7363C92.7893 18.5565 92.7893 18.3768 92.7893 18.0747C92.3822 18.1754 91.9247 18.1537 91.7592 18.3536C91 19.2615 90.0559 19.9076 88.9738 20.3956C87.191 21.1982 85.2735 21.4476 83.3414 21.4864C79.7059 21.5576 76.0672 21.5406 72.4301 21.5607C72.2549 21.5623 72.0781 21.5607 71.8883 21.5607C71.8883 21.8783 71.8883 22.1526 71.8883 22.3757C72.92 22.4872 73.9193 22.5616 74.9073 22.7088C77.0243 23.028 78.3757 24.1822 78.9581 26.1638C79.2874 27.2871 79.4171 28.4274 79.4171 29.5895C79.4139 37.5407 79.4155 45.492 79.4155 53.4417C79.4155 55.1599 79.5421 56.8673 80.0352 58.5266C81.3087 62.8121 83.9919 65.9108 88.4953 67.3641C91.3585 68.2891 94.3159 68.2798 97.2294 67.6461C103.156 66.3555 107.811 63.3296 110.871 58.2307C110.924 58.1424 110.993 58.0618 111.053 57.9782C111.093 57.9859 111.135 57.9937 111.176 58.0014C111.176 61.7601 111.176 65.5188 111.176 69.4201C111.474 69.2714 111.693 69.228 111.8 69.0994C112.717 67.9901 113.965 67.4013 115.378 67.251C117.456 67.0295 119.552 66.8342 121.639 66.8265C134.035 66.7878 146.429 66.8064 158.825 66.8048C159.014 66.8048 159.203 66.8048 159.404 66.8048C159.404 66.4841 159.404 66.2176 159.404 65.962C159.36 65.9387 159.334 65.917 159.308 65.9139ZM264.245 52.4594C260.746 57.0052 256.062 59.5647 250.143 59.9056C245.819 60.155 242.028 58.9062 238.968 55.8912C237.239 54.1869 235.977 52.1945 235.064 49.9975C233.785 46.9236 233.273 43.7087 233.174 40.4225C233.158 39.874 233.172 39.324 233.172 38.7275C243.654 38.7275 254.076 38.7275 264.597 38.7275C264.451 37.5268 264.381 36.371 264.162 35.243C262.887 28.6846 258.984 24.1373 252.487 21.6893C248.407 20.1524 244.142 19.9401 239.854 20.6466C231.553 22.0162 225.763 26.4861 222.42 33.8285C221.119 36.687 220.58 39.7206 220.465 42.824C220.292 47.4798 220.989 51.9853 223.139 56.2166C225.497 60.86 229.068 64.3382 234.099 66.3462C238.042 67.9203 242.171 68.2472 246.345 67.5733C254.654 66.23 260.686 61.9089 264.381 54.6688C264.738 53.97 265.001 53.2263 265.335 52.4377C264.91 52.447 264.626 51.9636 264.245 52.4594ZM233.234 37.3842C233.308 36.5476 233.359 35.7404 233.454 34.9363C233.748 32.4619 234.28 30.0388 235.343 27.7488C236.112 26.091 237.075 24.5525 238.527 23.3471C241.671 20.738 246.066 21.1347 248.644 24.2566C250.001 25.902 250.772 27.8108 251.317 29.8126C251.968 32.2017 252.18 34.6434 252.211 37.1038C252.213 37.1875 252.198 37.2696 252.19 37.3842C245.86 37.3842 239.58 37.3842 233.234 37.3842ZM221.189 59.1278C221.072 59.2161 220.957 59.3044 220.84 59.3927C219.055 60.7453 217.128 61.8515 214.901 62.3954C211.621 63.1948 209.309 61.8763 208.574 58.7234C208.329 57.6745 208.222 56.576 208.22 55.5008C208.194 44.8815 208.206 34.2623 208.206 23.6415C208.206 23.4912 208.206 23.3394 208.206 23.1519C208.443 23.1519 208.619 23.1519 208.796 23.1519C212.284 23.1519 215.772 23.1535 219.26 23.1473C219.427 23.1473 219.678 23.1333 219.745 23.0357C220.055 22.5802 220.313 22.0922 220.632 21.5437C216.432 21.5437 212.336 21.5437 208.196 21.5437C208.196 17.2566 208.196 13.0099 208.196 8.73058C207.885 8.73058 207.614 8.75847 207.353 8.72438C206.874 8.66086 206.621 8.83438 206.386 9.24961C205.218 11.318 203.797 13.2221 202.1 14.9311C198.437 18.6216 194.045 21.0247 188.727 21.7823C188.098 21.8722 187.464 21.9403 186.833 22.0178C186.833 22.4082 186.833 22.7584 186.833 23.155C189.472 23.155 192.084 23.155 194.738 23.155C194.738 23.3843 194.738 23.5671 194.738 23.7484C194.738 34.8526 194.735 45.9583 194.746 57.0625C194.748 57.8868 194.785 58.7219 194.923 59.5353C195.528 63.0926 197.531 65.6877 200.997 67.1534C203.824 68.3495 206.773 68.3015 209.698 67.5237C214.349 66.2873 218.082 63.7108 221.085 60.1473C221.284 59.9102 221.27 59.5058 221.354 59.1805C221.297 59.1619 221.244 59.1448 221.189 59.1278Z" fill="white"/>
</svg>
